<svg width="531" height="20" viewBox="0 0 531 20" fill="none" xmlns="http://www.w3.org/2000/svg">
<rect width="531" height="20" rx="10" fill="#C1AC9B" fill-opacity="0.4"/>
<rect width="61" height="20" rx="10" fill="#FA9344"/>
<path d="M254.315 15.1392C253.633 15.1392 253.029 15.0182 252.506 14.7763C251.985 14.531 251.579 14.1946 251.288 13.767C250.996 13.3362 250.852 12.8456 250.855 12.2955C250.852 11.8646 250.936 11.4669 251.109 11.1023C251.281 10.7344 251.516 10.4278 251.815 10.1825C252.116 9.93395 252.453 9.77651 252.824 9.71023V9.65057C252.337 9.52462 251.949 9.25118 251.661 8.83026C251.372 8.40601 251.23 7.92377 251.233 7.38352C251.23 6.86648 251.361 6.40412 251.626 5.99645C251.891 5.58878 252.255 5.26728 252.719 5.03196C253.187 4.79664 253.719 4.67898 254.315 4.67898C254.905 4.67898 255.432 4.79664 255.896 5.03196C256.36 5.26728 256.725 5.58878 256.99 5.99645C257.259 6.40412 257.394 6.86648 257.398 7.38352C257.394 7.92377 257.247 8.40601 256.955 8.83026C256.667 9.25118 256.284 9.52462 255.807 9.65057V9.71023C256.175 9.77651 256.506 9.93395 256.801 10.1825C257.096 10.4278 257.331 10.7344 257.507 11.1023C257.683 11.4669 257.772 11.8646 257.776 12.2955C257.772 12.8456 257.623 13.3362 257.328 13.767C257.036 14.1946 256.63 14.531 256.11 14.7763C255.593 15.0182 254.995 15.1392 254.315 15.1392ZM254.315 14.0455C254.776 14.0455 255.174 13.9709 255.509 13.8217C255.843 13.6726 256.102 13.4621 256.284 13.1903C256.466 12.9186 256.559 12.6004 256.562 12.2358C256.559 11.8513 256.46 11.5116 256.264 11.2166C256.069 10.9216 255.802 10.6896 255.464 10.5206C255.129 10.3516 254.746 10.267 254.315 10.267C253.881 10.267 253.493 10.3516 253.152 10.5206C252.814 10.6896 252.547 10.9216 252.352 11.2166C252.159 11.5116 252.065 11.8513 252.068 12.2358C252.065 12.6004 252.153 12.9186 252.332 13.1903C252.514 13.4621 252.774 13.6726 253.112 13.8217C253.45 13.9709 253.851 14.0455 254.315 14.0455ZM254.315 9.21307C254.68 9.21307 255.003 9.14015 255.285 8.99432C255.57 8.84848 255.794 8.64465 255.956 8.38281C256.118 8.12098 256.201 7.81439 256.205 7.46307C256.201 7.11837 256.12 6.81842 255.961 6.56321C255.802 6.30469 255.581 6.10582 255.3 5.96662C255.018 5.8241 254.69 5.75284 254.315 5.75284C253.934 5.75284 253.601 5.8241 253.316 5.96662C253.031 6.10582 252.811 6.30469 252.655 6.56321C252.499 6.81842 252.423 7.11837 252.426 7.46307C252.423 7.81439 252.501 8.12098 252.66 8.38281C252.822 8.64465 253.046 8.84848 253.331 8.99432C253.616 9.14015 253.944 9.21307 254.315 9.21307ZM260.241 15.0795C259.996 15.0795 259.786 14.9917 259.61 14.8161C259.434 14.6404 259.347 14.4299 259.347 14.1847C259.347 13.9394 259.434 13.7289 259.61 13.5533C259.786 13.3776 259.996 13.2898 260.241 13.2898C260.487 13.2898 260.697 13.3776 260.873 13.5533C261.049 13.7289 261.136 13.9394 261.136 14.1847C261.136 14.3471 261.095 14.4962 261.012 14.6321C260.933 14.768 260.825 14.8774 260.689 14.9602C260.556 15.0398 260.407 15.0795 260.241 15.0795ZM262.983 12.9119V11.8977L267.458 4.81818H268.194V6.3892H267.696L264.316 11.7386V11.8182H270.341V12.9119H262.983ZM267.776 15V12.6037V12.1314V4.81818H268.949V15H267.776ZM275.585 15.1392C275.167 15.1326 274.75 15.053 274.332 14.9006C273.915 14.7481 273.533 14.4912 273.189 14.13C272.844 13.7654 272.567 13.2732 272.358 12.6534C272.15 12.0303 272.045 11.2481 272.045 10.3068C272.045 9.4053 272.13 8.60653 272.299 7.91051C272.468 7.21117 272.713 6.62287 273.035 6.1456C273.356 5.66501 273.744 5.30043 274.198 5.05185C274.655 4.80327 275.171 4.67898 275.744 4.67898C276.314 4.67898 276.821 4.79332 277.265 5.02202C277.713 5.2474 278.077 5.56226 278.359 5.96662C278.641 6.37098 278.823 6.83665 278.906 7.36364H277.693C277.58 6.90625 277.362 6.52675 277.037 6.22514C276.712 5.92353 276.281 5.77273 275.744 5.77273C274.955 5.77273 274.334 6.11577 273.88 6.80185C273.429 7.48793 273.202 8.45076 273.199 9.69034H273.278C273.464 9.40862 273.684 9.16832 273.939 8.96946C274.198 8.76728 274.483 8.61151 274.795 8.50213C275.106 8.39276 275.436 8.33807 275.784 8.33807C276.367 8.33807 276.901 8.4839 277.385 8.77557C277.869 9.06392 278.256 9.4633 278.548 9.97372C278.84 10.4808 278.986 11.0625 278.986 11.7188C278.986 12.3485 278.845 12.9252 278.563 13.4489C278.281 13.9692 277.885 14.3835 277.375 14.6918C276.868 14.9967 276.271 15.1458 275.585 15.1392ZM275.585 14.0455C276.003 14.0455 276.377 13.9411 276.709 13.7322C277.043 13.5234 277.307 13.2434 277.499 12.892C277.695 12.5407 277.792 12.1496 277.792 11.7188C277.792 11.2978 277.698 10.915 277.509 10.5703C277.323 10.2223 277.067 9.94555 276.738 9.74006C276.414 9.53456 276.042 9.43182 275.625 9.43182C275.31 9.43182 275.017 9.49479 274.745 9.62074C274.473 9.74337 274.234 9.91241 274.029 10.1278C273.827 10.3433 273.668 10.5902 273.552 10.8686C273.436 11.1437 273.378 11.4337 273.378 11.7386C273.378 12.143 273.472 12.5208 273.661 12.8722C273.853 13.2235 274.115 13.5069 274.447 13.7223C274.781 13.9377 275.161 14.0455 275.585 14.0455ZM286.131 13.0909V12.554C286.131 12.1828 286.207 11.843 286.36 11.5348C286.516 11.2232 286.741 10.9747 287.036 10.7891C287.334 10.6001 287.695 10.5057 288.12 10.5057C288.551 10.5057 288.912 10.6001 289.203 10.7891C289.495 10.9747 289.716 11.2232 289.865 11.5348C290.014 11.843 290.088 12.1828 290.088 12.554V13.0909C290.088 13.4621 290.012 13.8035 289.86 14.1151C289.711 14.4233 289.489 14.6719 289.194 14.8608C288.902 15.0464 288.544 15.1392 288.12 15.1392C287.689 15.1392 287.326 15.0464 287.031 14.8608C286.736 14.6719 286.512 14.4233 286.36 14.1151C286.207 13.8035 286.131 13.4621 286.131 13.0909ZM287.145 12.554V13.0909C287.145 13.3991 287.218 13.6759 287.364 13.9212C287.51 14.1631 287.762 14.2841 288.12 14.2841C288.468 14.2841 288.713 14.1631 288.855 13.9212C289.001 13.6759 289.074 13.3991 289.074 13.0909V12.554C289.074 12.2457 289.005 11.9706 288.865 11.7287C288.726 11.4834 288.478 11.3608 288.12 11.3608C287.772 11.3608 287.521 11.4834 287.369 11.7287C287.22 11.9706 287.145 12.2457 287.145 12.554ZM281.06 7.2642V6.72727C281.06 6.35606 281.136 6.01634 281.289 5.7081C281.444 5.39654 281.67 5.14796 281.965 4.96236C282.263 4.77344 282.624 4.67898 283.049 4.67898C283.48 4.67898 283.841 4.77344 284.132 4.96236C284.424 5.14796 284.645 5.39654 284.794 5.7081C284.943 6.01634 285.017 6.35606 285.017 6.72727V7.2642C285.017 7.63542 284.941 7.9768 284.789 8.28835C284.64 8.59659 284.417 8.84517 284.123 9.03409C283.831 9.2197 283.473 9.3125 283.049 9.3125C282.618 9.3125 282.255 9.2197 281.96 9.03409C281.665 8.84517 281.441 8.59659 281.289 8.28835C281.136 7.9768 281.06 7.63542 281.06 7.2642ZM282.074 6.72727V7.2642C282.074 7.57244 282.147 7.8492 282.293 8.09446C282.439 8.33641 282.691 8.45739 283.049 8.45739C283.397 8.45739 283.642 8.33641 283.784 8.09446C283.93 7.8492 284.003 7.57244 284.003 7.2642V6.72727C284.003 6.41903 283.934 6.14394 283.794 5.90199C283.655 5.65672 283.407 5.53409 283.049 5.53409C282.701 5.53409 282.45 5.65672 282.298 5.90199C282.149 6.14394 282.074 6.41903 282.074 6.72727ZM281.438 15L288.438 4.81818H289.571L282.571 15H281.438Z" fill="white"/>
</svg>
